<svg id="Layer_1" data-name="Layer 1" xmlns="http://www.w3.org/2000/svg" viewBox="0 0 50.27 14.04"><defs><style>.cls-1{fill:#fef9e3;}</style></defs><path class="cls-1" d="M161.72,173c.56-.06,1.12-.14,1.68-.17,1.44-.08,2.88-.13,4.32-.19l1.4-.06c2.91,0,5.81-.05,8.71-.05,2.36,0,4.71,0,7.07.05l3.91.06,2.6.06c.62,0,1.24,0,1.85.06,1.11.06,2.21.1,3.31.19a22.9,22.9,0,0,1,4.79.84,3.13,3.13,0,0,1,1,.5c2.44,1.87,1.94,3.58,1.35,5.19a3.25,3.25,0,0,1-.85,1.2,1.92,1.92,0,0,0-.38,2,3.6,3.6,0,0,1,.1,1.35,2,2,0,0,1-1.28,1.45,6.85,6.85,0,0,1-2.47.65c-1,.08-2.1.13-3.15.17s-2.39.09-3.58.13l-2.69.06-4.34.06c-.78,0-1.55,0-2.33,0-2.89,0-5.79,0-8.68-.06l-4.85,0-3.82-.06c-1,0-2,0-3-.07a18.37,18.37,0,0,1-4.31-.47,5.18,5.18,0,0,1-1.94-.88,1.85,1.85,0,0,1-.55-1.85,10,10,0,0,0,.19-1.2,1.8,1.8,0,0,0-.29-.82c-.25-.45-.54-.87-.81-1.29A4.19,4.19,0,0,1,154,178a4.09,4.09,0,0,1,.22-1.9,4,4,0,0,1,1.24-1.54l.41-.34a2.09,2.09,0,0,1,.64-.35,12.29,12.29,0,0,1,1.35-.29c1.07-.15.91-.14,2-.27C160.38,173.19,160.61,173.19,161.72,173Z" transform="translate(-153.94 -172.56)"/></svg>